# xmcd
#
# Track frame offsets:
#  154
#  16315
#  30952
#  48962
#  65271
#  76985
#  91008
#  103958
#  116223
#  128863
#
# Disc length: 1963 seconds
#
# Revision: 0
# Processed by: cddbd v1.4PL0 Copyright (c) Steve Scherf et al.
# Submitted via: AltoMP3_Maker 3.0
#
DISCID=7507a90a
DTITLE=James Foley - more hot country hits vol 4
DYEAR=1900
DGENRE=
TTITLE0=Adalida
TTITLE1=Summer time blues
TTITLE2=Who's cheating who
TTITLE3=What i don't know
TTITLE4=Every second
TTITLE5=Boot's scoting boogie
TTITLE6=Leeza Jane
TTITLE7=Dumas Walker
TTITLE8=Oh lonesome me
TTITLE9=The dance
EXTD=
EXTT0=
EXTT1=
EXTT2=
EXTT3=
EXTT4=
EXTT5=
EXTT6=
EXTT7=
EXTT8=
EXTT9=
PLAYORDER=
